<svg width="32" height="32" viewBox="0 0 32 32" fill="none" xmlns="http://www.w3.org/2000/svg">
  <path d="M32 16C32 24.8366 24.8366 32 16 32C7.16344 32 0 24.8366 0 16C0 7.16344 7.16344 0 16 0C24.8366 0 32 7.16344 32 16Z" fill="white"/>
  <path d="M31 16C31 7.71573 24.2843 1 16 1C7.71573 1 1 7.71573 1 16C1 24.2843 7.71573 31 16 31V32C7.16344 32 0 24.8366 0 16C0 7.16344 7.16344 0 16 0C24.8366 0 32 7.16344 32 16C32 24.8366 24.8366 32 16 32V31C24.2843 31 31 24.2843 31 16Z" fill="#F22225"/>
  <path d="M10.8906 8H13.7656V19.25C13.7604 20.2812 13.5417 21.1693 13.1094 21.9141C12.6771 22.6536 12.0729 23.224 11.2969 23.625C10.526 24.0208 9.6276 24.2188 8.60156 24.2188C7.66406 24.2188 6.82031 24.0521 6.07031 23.7188C5.32552 23.3802 4.73438 22.8802 4.29688 22.2188C3.85937 21.5573 3.64062 20.7344 3.64062 19.75H6.52344C6.52865 20.1823 6.6224 20.5547 6.80469 20.8672C6.99219 21.1797 7.25 21.4193 7.57812 21.5859C7.90625 21.7526 8.28385 21.8359 8.71094 21.8359C9.17448 21.8359 9.56771 21.7396 9.89062 21.5469C10.2135 21.349 10.4583 21.0573 10.625 20.6719C10.7969 20.2865 10.8854 19.8125 10.8906 19.25V8Z" fill="#F22225"/>
  <path d="M16.9102 24V8H27.1602V10.4297H19.8086V14.7734H26.457V17.2031H19.8086V24H16.9102Z" fill="#0F172A"/>
</svg>
